<svg xmlns="http://www.w3.org/2000/svg" xmlns:xlink="http://www.w3.org/1999/xlink" version="1.1" id="Layer_1" x="0px" y="0px" width="100px" height="100px" viewBox="0 0 100 100" enable-background="new 0 0 100 100" xml:space="preserve">
<g id="Captions">
</g>
<g>
	<path fill="#FFFFFF" d="M45.37,31c1.32,0,2.61-0.53,3.54-1.47c0.93-0.92,1.46-2.21,1.46-3.53c0-1.32-0.53-2.6-1.46-3.54   C47.98,21.53,46.69,21,45.37,21c-1.32,0-2.61,0.53-3.54,1.46c-0.93,0.94-1.46,2.23-1.46,3.54c0,1.32,0.53,2.6,1.46,3.53   C42.76,30.47,44.05,31,45.37,31z"/>
	<path fill="#FFFFFF" d="M36,44.5h18.737c0.007,0.001,0.015,0,0.02,0c2.762,0,5-2.239,5-5c0-1.966-1.135-3.667-2.785-4.484   c-1.374-0.772-5.805-2.975-11.601-2.975c-6.624,0-11.47,2.878-12,3.207c-1.901,1.175-2.791,3.47-2.18,5.619   C31.801,43.017,33.765,44.5,36,44.5z"/>
	<path fill="#FFFFFF" d="M85.401,23.521c-0.029-0.148-0.085-0.285-0.127-0.428c-0.05-0.169-0.089-0.341-0.157-0.505   c-0.069-0.169-0.165-0.322-0.253-0.481c-0.069-0.126-0.125-0.258-0.206-0.379c-0.184-0.275-0.392-0.532-0.624-0.765L70.037,6.966   c-0.232-0.233-0.489-0.441-0.764-0.625C69.15,6.26,69.018,6.204,68.89,6.134c-0.157-0.087-0.31-0.182-0.478-0.251   c-0.161-0.067-0.33-0.105-0.496-0.154c-0.146-0.043-0.286-0.1-0.438-0.13c-0.307-0.061-0.618-0.091-0.93-0.094   c-0.017,0-0.032-0.005-0.049-0.005h-47c-2.761,0-5,2.239-5,5v78c0,2.762,2.239,5,5,5h61c2.762,0,5-2.238,5-5v-64   C85.5,24.172,85.466,23.844,85.401,23.521z M75.5,83.5h-51v-68h37v9c0,2.761,2.238,5,5,5h9V83.5z"/>
	<path fill="#FFFFFF" d="M35.5,50.5c-2.761,0-5,2.238-5,5s2.239,5,5,5h29c2.762,0,5-2.238,5-5s-2.238-5-5-5H35.5z"/>
	<path fill="#FFFFFF" d="M64.5,66.5h-29c-2.761,0-5,2.238-5,5s2.239,5,5,5h29c2.762,0,5-2.238,5-5S67.262,66.5,64.5,66.5z"/>
</g>
</svg>