<?xml version="1.0" encoding="utf-8"?>
<!-- Generator: Adobe Illustrator 16.0.0, SVG Export Plug-In . SVG Version: 6.00 Build 0)  -->
<!DOCTYPE svg PUBLIC "-//W3C//DTD SVG 1.1//EN" "http://www.w3.org/Graphics/SVG/1.1/DTD/svg11.dtd">
<svg version="1.1" id="Layer_1" xmlns="http://www.w3.org/2000/svg" xmlns:xlink="http://www.w3.org/1999/xlink" x="0px" y="0px"
	 width="100px" height="99.758px" viewBox="0 0 100 99.758" enable-background="new 0 0 100 99.758" xml:space="preserve">
<path fill="#FFFFFF" d="M97.382,82.108L79.289,64.295c2.497-4.229,4.321-8.98,5.25-14.094C88.741,27.048,73.377,4.871,50.225,0.667
	C47.332,0.143,44.43-0.051,41.6,0.011C21.788,0.454,4.369,14.724,0.692,34.981c-4.203,23.152,11.162,45.332,34.314,49.533
	c10.481,1.902,20.747-0.195,29.25-5.219l18.221,17.938c3.452,3.402,8.973,3.361,12.375-0.094l2.625-2.656
	C100.877,91.03,100.835,85.51,97.382,82.108z M35.974,79.139C15.798,75.477,2.405,56.125,6.068,35.951
	C9.272,18.296,24.491,5.866,41.756,5.48c2.466-0.055,4.947,0.136,7.469,0.594c20.178,3.663,33.569,22.981,29.907,43.157
	C75.47,69.409,56.151,82.801,35.974,79.139z"/>
<circle fill="#FFFFFF" cx="31.978" cy="24.965" r="8.216"/>
<circle fill="#FFFFFF" cx="22.941" cy="41.104" r="3.195"/>
<circle fill="#FFFFFF" cx="49.084" cy="26.58" r="5.478"/>
<circle fill="#FFFFFF" cx="37.788" cy="43.686" r="5.478"/>
<circle fill="#FFFFFF" cx="45.536" cy="36.996" r="3.195"/>
</svg>
